<svg height="512" width="512" xmlns="http://www.w3.org/2000/svg"><path d="m280.55482 30.86032a20.002 20.002 0 0 0 -2.78125.28125h-176.90625a20.002 20.002 0 0 0 -20.000003 20v410.00003a20.002 20.002 0 0 0 20.000003 20h310a20.002 20.002 0 0 0 20-20v-276.75003a20.002 20.002 0 0 0 -7.53125-19.09375l-126.71875-126.71875a20.002 20.002 0 0 0 -16.0625-7.71875zm-159.6875 40.28125h140v106.78125a20.002 20.002 0 0 0 5.75 17.53125 20.002 20.002 0 0 0 .15625.15625 20.002 20.002 0 0 0 .28125.25 20.002 20.002 0 0 0 17.09375 5.28125h106.71875v240h-270zm180 28.28125 61.71875 61.71875h-61.71875z"/></svg>