<svg height="512" width="512" xmlns="http://www.w3.org/2000/svg"><path d="m91.002485 76.00072a20.002 20.002 0 0 0 -17.5625 10h-22.4375a20.002 20.002 0 0 0 -17.15625 9.6875l-29.9999995 50a20.002 20.002 0 0 0 -2.34375 14.8125l59.9999995 260a20.002 20.002 0 0 0 19.5 15.5h399.968755.0312a20.009763 20.009763 0 0 0 8.625-1.9687 20.002 20.002 0 0 0 .9375-.4375 20.009763 20.009763 0 0 0 .0312-.031 20.002 20.002 0 0 0 .625-.375 20.009763 20.009763 0 0 0 1.75-1.1562 20.009763 20.009763 0 0 0 1.65625-1.4063 20.009763 20.009763 0 0 0 .6875-.6562 20.002 20.002 0 0 0 3.5-4.8438 20.009763 20.009763 0 0 0 .0312-.031 20.002 20.002 0 0 0 1.28125-3.2188 20.002 20.002 0 0 0 .15625-.4687 20.009763 20.009763 0 0 0 0-.031 20.002 20.002 0 0 0 .4375-1.9375 20.009763 20.009763 0 0 0 .25-2 20.009763 20.009763 0 0 0 .0312-.8125l10-320a20.002 20.002 0 0 0 -20-20.625h-400.000005zm129.343755 40h250l-5.59375 179.125-44.625-145.03125a20.002 20.002 0 0 0 -19.125-14.09375h-168.65625zm-158.031255 10h117.375005l24.15625 40.28125a20.002 20.002 0 0 0 17.15625 9.71875h165.21875l67.6875 220h-356.968755l-54.625-236.65625z"/></svg>