<?xml version="1.0" ?><svg height="512" id="svg2" version="1.1" width="512" xmlns="http://www.w3.org/2000/svg" xmlns:cc="http://creativecommons.org/ns#" xmlns:dc="http://purl.org/dc/elements/1.1/" xmlns:inkscape="http://www.inkscape.org/namespaces/inkscape" xmlns:rdf="http://www.w3.org/1999/02/22-rdf-syntax-ns#" xmlns:sodipodi="http://sodipodi.sourceforge.net/DTD/sodipodi-0.dtd" xmlns:svg="http://www.w3.org/2000/svg"><defs id="defs4"/><g id="layer1" transform="translate(0,-540.3622)"><g id="layer1-5" transform="translate(-573.14286,170.28574)"/><path d="m 91.002485,616.36292 a 20.002,20.002 0 0 0 -17.5625,10 l -22.4375,0 a 20.002,20.002 0 0 0 -17.15625,9.6875 l -29.9999995,50 a 20.002,20.002 0 0 0 -2.34375,14.8125 l 59.9999995,260 a 20.002,20.002 0 0 0 19.5,15.5 l 399.968755,0 0.0312,0 a 20.009763,20.009763 0 0 0 8.625,-1.9687 20.002,20.002 0 0 0 0.9375,-0.4375 20.009763,20.009763 0 0 0 0.0312,-0.031 20.002,20.002 0 0 0 0.625,-0.375 20.009763,20.009763 0 0 0 1.75,-1.1562 20.009763,20.009763 0 0 0 1.65625,-1.4063 20.009763,20.009763 0 0 0 0.6875,-0.6562 20.002,20.002 0 0 0 3.5,-4.8438 20.009763,20.009763 0 0 0 0.0312,-0.031 20.002,20.002 0 0 0 1.28125,-3.2188 20.002,20.002 0 0 0 0.15625,-0.4687 20.009763,20.009763 0 0 0 0,-0.031 20.002,20.002 0 0 0 0.4375,-1.9375 20.009763,20.009763 0 0 0 0.25,-2 20.009763,20.009763 0 0 0 0.0312,-0.8125 l 10,-320 a 20.002,20.002 0 0 0 -20,-20.625 l -400.000005,0 z m 129.343755,40 250,0 -5.59375,179.125 -44.625,-145.03125 a 20.002,20.002 0 0 0 -19.125,-14.09375 l -168.65625,0 -12,-20 z m -158.031255,10 117.375005,0 24.15625,40.28125 a 20.002,20.002 0 0 0 17.15625,9.71875 l 165.21875,0 67.6875,220 -356.968755,0 -54.625,-236.65625 20,-33.34375 z" id="path8" style="font-size:medium;font-style:normal;font-variant:normal;font-weight:normal;font-stretch:normal;text-indent:0;text-align:start;text-decoration:none;line-height:normal;letter-spacing:normal;word-spacing:normal;text-transform:none;direction:ltr;block-progression:tb;writing-mode:lr-tb;text-anchor:start;baseline-shift:baseline;color:#000000;fill:#222222;fill-opacity:1;stroke:none;stroke-width:40;marker:none;visibility:visible;display:inline;overflow:visible;enable-background:accumulate;font-family:Sans;-inkscape-font-specification:Sans"/></g></svg>