<?xml version="1.0" ?><svg height="16px" version="1.1" viewBox="0 0 16 16" width="16px" xmlns="http://www.w3.org/2000/svg" xmlns:sketch="http://www.bohemiancoding.com/sketch/ns" xmlns:xlink="http://www.w3.org/1999/xlink"><title/><defs/><g fill="none" fill-rule="evenodd" id="Icons with numbers" stroke="none" stroke-width="1"><g fill="#000000" id="Group" transform="translate(-384.000000, -240.000000)"><path d="M388,242 L396,242 L396,240 L400,240 L400,244 L398,244 L398,252 L400,252 L400,256 L396,256 L396,254 L388,254 L388,256 L384,256 L384,252 L386,252 L386,244 L384,244 L384,240 L388,240 Z M387,244 L387,252 L388,252 L388,253 L396,253 L396,252 L397,252 L397,244 L396,244 L396,243 L388,243 L388,244 Z M387,244" id="Rectangle 167"/></g></g></svg>